/* XPM */
static char *result[] = {
/* columns rows colors chars-per-pixel */
"64 64 218 2 ",
"   c black",
".  c #1A2335",
"X  c #763421",
"o  c #3B723D",
"O  c #3B3040",
"+  c #6A7357",
"@  c gray38",
"#  c #747474",
"$  c #882536",
"%  c #995938",
"&  c #E04323",
"*  c #8B3C4F",
"=  c #42C03E",
"-  c #42C03F",
";  c #4FC639",
":  c #5ACC35",
">  c #7ED72A",
",  c #7ED72B",
"<  c #79D32E",
"1  c #64CF30",
"2  c #64D030",
"3  c #22B14C",
"4  c #33B945",
"5  c #72834E",
"6  c #8FB735",
"7  c #FB8227",
"8  c #9BE31E",
"9  c #9CE31E",
"0  c #9DE41D",
"q  c #9CE41F",
"w  c #9FE41F",
"e  c #A4E61B",
"r  c #A4E71B",
"t  c #A0E51D",
"y  c #A2E41E",
"u  c #A5E51D",
"i  c #A6E51D",
"p  c #A4E61D",
"a  c #A7E61C",
"s  c #A6E61D",
"d  c #A8E61C",
"f  c #A8E71C",
"g  c #A9E71C",
"h  c #A8E61D",
"j  c #A9E61D",
"k  c #A9E71D",
"l  c #A9E61E",
"z  c #A8E91A",
"x  c #A8E81B",
"c  c #A9E81B",
"v  c #A8E91B",
"b  c #8DDE23",
"n  c #89DB27",
"m  c #89DD25",
"M  c #88DC27",
"N  c #8DDF24",
"B  c #81D72A",
"V  c #84D929",
"C  c #85DA28",
"Z  c #97DF22",
"A  c #90DF24",
"S  c #A3DD22",
"D  c #B2C530",
"F  c #99E120",
"G  c #99E021",
"H  c #9BE120",
"J  c #99E220",
"K  c #9BE221",
"L  c #99E122",
"P  c #9AE122",
"I  c #9DE220",
"U  c #81925D",
"Y  c #B78071",
"T  c #CFA15F",
"R  c #AEDA4D",
"E  c #FFCD4C",
"W  c #3EB7DC",
"Q  c #00B7EF",
"!  c #18B7E8",
"~  c #15BBF0",
"^  c #2CB7E2",
"/  c #39BEE9",
"(  c #27BEF1",
")  c #27BFF1",
"_  c #7CB5C6",
"`  c #74B5C8",
"'  c #71B7CD",
"]  c #7BB6C9",
"[  c #36C2F1",
"{  c #77C8DF",
"}  c #43C5F2",
"|  c #44C5F2",
" . c #44C5F3",
".. c #50C7F2",
"X. c #5ACAF4",
"o. c #6ECAE4",
"O. c #63CDEB",
"+. c #6ACEEC",
"@. c #6BCEEC",
"#. c #70CFEC",
"$. c #6CD0ED",
"%. c #70D0EC",
"&. c #72D1ED",
"*. c #72D0EE",
"=. c #73D1EE",
"-. c #78D1EF",
";. c #7FD2ED",
":. c #9D9D9D",
">. c #9DB4BB",
",. c #9FB5BB",
"<. c #AEA1A3",
"1. c gray67",
"2. c #ABB3B6",
"3. c #ABB4B6",
"4. c #ADB4B6",
"5. c #A3B5BB",
"6. c #A5B4B9",
"7. c #A4B4BA",
"8. c #A2B5BC",
"9. c #A3B6BC",
"0. c #AFB7BA",
"q. c #AFB8BA",
"w. c #AEBCBF",
"e. c #B2B3B3",
"r. c gray70",
"t. c #B4B3B3",
"y. c #B0B3B4",
"u. c #B1B3B4",
"i. c #B2B4B4",
"p. c #B3B4B4",
"a. c #B2B5B5",
"s. c #B0B5B6",
"d. c #B1B5B6",
"f. c #B2B5B6",
"g. c #B4B4B4",
"h. c #B4B5B5",
"j. c gray71",
"k. c #B4B6B6",
"l. c #B6B6B6",
"z. c #B1B7B9",
"x. c #B2B7B9",
"c. c #B2B8B9",
"v. c #B0B8BA",
"b. c #B1B8BA",
"n. c #B0B8BB",
"m. c #B2B8BA",
"M. c #BCBCBC",
"N. c #C38B80",
"B. c #DFBE9B",
"V. c #B9C2A6",
"C. c #FEE4AE",
"Z. c #83B5C4",
"A. c #91B5C0",
"S. c #99BDC7",
"D. c #A3BFC7",
"F. c #A5BDC4",
"G. c #ACBEC2",
"H. c #AFBEC2",
"J. c #ACBFC4",
"K. c #94CBDA",
"L. c #95CEDF",
"P. c #AAC0C7",
"I. c #AAC1C7",
"U. c #ACC0C6",
"Y. c #A0D0DE",
"T. c #A0D1DE",
"R. c #A1D1DF",
"E. c #86D4EA",
"W. c #88D5EA",
"Q. c #88D4EB",
"!. c #89D4EB",
"~. c #8AD5EA",
"^. c #8BD5EB",
"/. c #8BD7EB",
"(. c #8CD6EB",
"). c #89D4EC",
"_. c #8DD5ED",
"`. c #8CD5EE",
"'. c #8FD5EE",
"]. c #8ED8EB",
"[. c #8ED8ED",
"{. c #98D3E3",
"}. c #9AD4E3",
"|. c #9DD5E3",
" X c #9ED5E4",
".X c #92D7EA",
"XX c #94D7EB",
"oX c #96D7ED",
"OX c #93D8E9",
"+X c #93D9EB",
"@X c #97D9E9",
"#X c #95D9EB",
"$X c #96D8EA",
"%X c #97D8EA",
"&X c #96D9EB",
"*X c #97DAEB",
"=X c #94D8EC",
"-X c #98D8E9",
";X c #99D8E9",
":X c #99D9E9",
">X c #99D8EA",
",X c #98D9EA",
"<X c #99D9EA",
"1X c #9AD8EB",
"2X c #9AD9EB",
"3X c #98DAEB",
"4X c #99D9EC",
"5X c #9BD9EC",
"6X c #9BD8ED",
"7X c #9AD9ED",
"8X c #9BD9ED",
"9X c #98DAEC",
"0X c #99DBED",
"qX c #9BD9EE",
"wX c #9CD8EE",
"eX c #81D3F1",
"rX c #9DD9F0",
"tX c #F9FFFF",
/* pixels */
"  Q Q Q Q Q :.Q Q Q O.Q >.>.] r.r.r.g.g.g.4.g.g.r.r.r.g.r.n.>..XE.S.).).Q { ' 5.e.>.g.j.j.g.` >.# Q Q Q Q Q Q Q Q # Q @ @       ",
"Q Q Q Q Q Q Q Q Q O.Q Q <X~ g.g.g.g.g.g.g.g.r.r.g.r.r.r.r.g.m.E.D.>X>Xg.<XH.k.0.4.g.g.j.g.j.r.>.Q Q Q Q Q # Q Q Q Q Q Q Q       ",
"Q Q Q Q Q Q Q Q Q Q Q <X<Xg.g.g.g.g.g.g.g.g.g.r.g.r.r.g.j.<X<X<X<X<Xg.g.g.b.g..Xr.g.r.g.j.j.Q Q Q Q Q Q Q Q Q Q Q :.Q Q Q       ",
"Q Q Q Q Q Q Q Q Q Q <X<XT.T.g.g.g.g.g.g.g.g.g.g.g.g.j.l.w.z.n.|.T.j.g.g.g.g.v.g.g.g.g.r.j.! ^ Q Q Q Q Q Q ~ Q Q Q Q Q Q @       ",
"Q Q Q Q Q Q Q Q Q ~ Q n.n.I.>.r.r.g.g.g.g.}.g.g.g.p.p.i.,.<X| .. X8Xg.g.g.I.g.g.g.g.r.g.p.Q Q Q Q Q Q ~ ~ Q Q Q Q Q Q Q Q Q     ",
"Q Q Q Q Q Q Q Q O.Q Q Q <X>.p.r.r.p.e.z.b.n.h.f.6._ 7.d.g.g.r.s.q.Y.R.g.<Xm.g.g.g.g.g.u.^ ` 2.>.Q Q ( [ ) O.Q Q ~ Q Q Q Q Q Q   ",
"Q Q Q Q Q Q Q Q Q Q O.O.$.( [ T.T.b.k.f.f.a.b.F.Z.,.4.g.g.g.g.r.n.f.P.J.n.c.g.g.g.g.g.Z.Q Q Q Q Q [ [ O.O.Q Q ~ Q Q Q Q Q Q Q   ",
"Q Q Q Q Q Q Q Q Q Q Q ~ @.E..XE.<X<X2X5X5X<XQ Q Q Q g.g.g.g.g.r.r.8.) {.f.U.f.g.g.g.W >.>.Q Q Q )  .~.E.E.<X) #.Q ~ Q Q Q Q     ",
"Q Q Q Q Q Q Q Q Q Q ~ ~ Q O.E.-X4X3X/.<X<X[ ) Q Q o.L.g.g.g.g.g.).`.) $ N.* 3.t.g.^ 1.y.>.Q Q Q Q .XE.Q <X<X<XQ +.Q Q Q Q Q Q Q ",
"Q Q Q Q Q Q Q Q Q Q Q O.Q Q Q Q 2X8X1X;X;XE.Q Q ` 8.9.<Xg.g.g.T.T.W.$ & & $ ` ` A.& 3.3.Q Q Q Q E.E.Q <X<X<X<X<X#.Q Q Q Q Q Q Q ",
"Q Q Q Q Q Q Q Q Q Q O.Q Q <XQ <X<X2X<X8X*.E.$XE.Q Q I.a.g.p.x.<X<X$ & & $ E.Q Q / Q ` ` Q Q Q Q Q Q 2X<X<X<X<X.XQ # Q Q Q Q Q   ",
"Q Q Q Q Q Q Q Q Q Q Q Q <X<X<XQ <X<X<XQ Q Q Q Q ) '.*.<X|.T.G.a.i.<.& & $ `.) ) ) Q Q Q Q Q Q Q Q <X<X<X<X<X<X!.Q Q Q Q Q Q Q Q ",
"Q Q Q Q Q Q Q Q Q Q Q <X<X<X<X<XO.8XQ ~ Q Q [  .#.E.E.>X<X<X2X5X7X$ & & $ <XQ E.Q ) Q Q Q Q Q Q %.) <X<X<X3X~ Q Q Q Q Q Q Q Q Q ",
"Q Q Q Q Q Q Q Q Q Q ~ Q <X<X<X*.O.=.Q Q ~  .X.) E.E.<X<X3X3X3X3X.X$ E & $ 2X5X`.`.) Q Q Q Q Q E.E.Q O.<X3X[ ) O.O.Q Q # Q Q Q   ",
"Q Q Q Q Q Q Q Q Q O.Q ) ) <X) } Q W.Q @.eX .=X$XE.[ [ 8X2X6X& >X,X$ E $ 5X<X<X<X$XQ Q Q Q Q Q Q Q E.$X@X[.Q O.O.Q Q Q Q # Q   Q ",
"Q Q Q Q Q Q Q Q Q Q ) ;.#.+X!.).) #.Q Q @.$X$XQ <X<XE.E.8X8X<X& <X<X$ E $ <X<X<XE.Q Q Q Q Q Q Q Q Q Q ) ) E.$XE.Q Q Q Q Q Q     ",
"Q Q Q Q Q Q Q Q Q Q ~ ).E.-.E.E.+.<XQ .XE._.<X<X<X<X2X& 8X<X<X<X<X<X$ $ E $ <X) Q Q Q Q Q Q Q Q Q Q Q Q Q ~ Q Q Q Q Q Q Q Q Q   ",
"Q Q   Q Q Q Q Q Q Q E.oXQ <X2X_.<X<X<XO.E.2X<X<X<X<X<X<X(.<X<X<X<X<X$ & & $ $ ) Q Q Q & Q Q Q Q Q ) ) ( Q Q Q Q Q Q Q Q Q       ",
"Q Q Q Q Q Q Q Q Q Q *.) 8X8X2X<X<X<X<X<X:X<X<X<X<X<X<X.XE.7 <X<X2X9X$ & & & E $ E.Q # & Q Q Q )  .~ ~ ~ Q O.Q Q ~ Q Q Q Q Q Q Q ",
"  Q Q Q Q Q Q Q Q Q Q 8XrXqXwX<X<X<X<X<XXX<X<X<X<X& ) ) O.E.&X+X/.~ $ & 7 & E $ _.) ~ E Q Q  . .[ ).E.E.) ) ~ Q Q Q Q Q Q Q Q Q ",
"Q   Q :.Q Q Q Q Q Q ^.<X>X>X2X>X<X<X<X_.E.Q <X<X2X7 & Q Q Q ~ ~ %.$ & & E & E $ ~ Q # Q Q ) ) E.$XO.O.) Q <XQ O.Q ~ Q Q Q Q Q Q ",
"  Q Q Q Q Q Q Q Q E.).E.<X<X<X>X>X<X%.[ @..X*X*X].7 & $XE.Q Q Q ) $ & & & & & $ $ ~.+.) ) ~ $XE.O.<X<X<X<X<X<X~ O.Q Q Q :.Q Q Q ",
"Q Q Q Q Q Q Q Q Q O.Q <X<X<X<X<X<X0XE..XE.Q ~ ) %.7 & E.Q Q Q Q Q E.$ & & & & & $ $ Q Q Q E.Q Q <X<X<X<X<X<X<X<XO.Q Q Q Q   Q   ",
"Q Q Q Q Q Q Q Q Q Q ) O.<X<X<X<X<X2X<XE.O.Q Q Q Q Q E Q Q Q Q Q E.$ 7 & & & & & & $ <XQ.%.& ~ <X<X<X2X<X<X<X<XQ Q Q Q Q Q Q Q Q ",
"Q Q Q Q Q Q Q Q Q K.Q ) ) 2X<X<X<X<XQ Q Q Q Q Q Q Q Q Q Q Q Q $ $ 7 7 & & 7 & & & $ <X<X& O.5X5X2X<X<X<X<X<XQ ~ Q Q Q Q Q Q Q Q ",
"  Q Q Q # Q Q Q # Q E.$X.X/.<X<X<X) ~ Q Q Q Q Q Q Q Q Q Q Q $ & $ 7 7 & E E & & & $ <X<X<XOXE.<X<X7 <X<X#.&.Q Q Q Q Q Q Q Q   Q ",
"  Q   Q Q Q Q Q Q Q Q Q E.%X,X,X+XQ Q Q Q Q Q & Q Q Q Q Q Q $ & $ $ 7 E & & & & & $ $ <XE.Q Q E.<X7 #X$.Q ~ Q O.O.Q Q Q Q Q     ",
"    Q Q Q Q Q Q Q Q Q Q Q Q ) ) ).$X.XO.Q Q Q & Q Q Q Q Q $ & 7 & & E E 7 & & & $ $ & $ ~ Q E.E./.) ) ).$X.XO.Q Q Q Q Q Q       ",
"  Q Q Q Q Q Q Q Q Q Q Q Q Q Q Q Q Q Q Q Q Q & 7 Q Q Q Q Q $ E & & & E E 7 7 & & $ & 7 $ Q Q & Q ) Q E.E.Q Q Q Q Q Q Q # Q       ",
"    Q Q Q Q Q Q Q Q Q Q Q Q Q Q Q Q Q Q Q Q 7 E Q Q Q Q $ 7 E & & & E E E 7 & & $ & 7 $ .XO.& Q Q Q Q Q Q Q Q Q Q Q Q # #       ",
"    Q :.:.Q :.Q Q @ # # Q Q Q Q Q Q Q Q Q Q E Q Q Q Q Q $ 7 E & & & E E E 7 & & $ & 7 $ Q Q $ Q Q Q Q Q Q :.:.Q Q :.:.:.:.      ",
"      # # # @ @ # # # Q Q Q Q Q Q Q Q Q Q Q Q Q Q Q $ Q $ $ E & 7 7 E E E 7 7 7 $ E 7 $ Q $ & $ Q Q @ Q Q Q # :.M.:.:.:.:.      ",
"      # # # # @ # # # # :.Q Q Q Q Q Q Q Q Q Q Q Q $ & $ Q $ E 7 7 7 E E E E 7 7 7 E 7 $ $ & & $ # Q # 3 :.@ # # # # # # #       ",
"      :.:.# # # # # # Q Q Q Q Q Q Q Q Q Q Q Q Q Q $ & & $ & 7 tXE E E E tXE 7 E E E & & & & 7 $ Q # :.:.3 @ 3 # # # 3 3 # 3 3   ",
"      # @ @ @ @ :.:.:.:.# Q Q Q Q Q Q Q Q Q Q Q Q $ & & & 7 7 tXE E E E tXE 7 E tXE 7 & & E & $ M.:.3 :.:.3 :.3 3 3 3 3 3 3 3   ",
"      :.:.:.:.:.M.:.:.:.:.:.:.M.M.Q Q Q Q Q Q Q Q $ & 7 E 7 7 tXtX7 7 tXtXE E 7 7 E E & tX7 $ $ :.M.# # 3 3 3 3 3 3 = 4 3 3 3 3 ",
"      M.:.:.:.:.:.M.M.:.:.:.# :.:.Q # # 3 Q Q Q # $ & 7 & 7 E E 7 7 E 7 tXtXE E 7 tXE 7 7 7 $ $ # :.3 3 3 3 3 3 = 4 M.3 3 3 3 3 ",
"      :.M.M.M.:.# :.:.:.# # # # # # 3 # @ 3 Q $ $ $ & 7 7 7 E E E tXE 7 7 tXtXE 7 tXE 7 7 7 $ $ $ $ @ 3 3 3 3 = ; 4 Z < 3 = 4 3 ",
"      # :.:.:.M.# # 3 # :.3 # # 3 # 3 3 # 3 $ & & $ $ 7 7 7 E tXE tXtX7 tXtXtXE E tXE 7 E & & $ & $ 3 3 3 3 3 3 Z < 3 3 3 3 3 3 ",
"      # # # # :.# 3 # 3 @ U V.:.:.3 3 3 3 4 $ 7 & 7 7 7 E E E E tXtXtXE tXtXE tXE tXE E E & 7 7 & $ 4 3 3 3 3 Z < 3 h h Z < = 4 ",
"      3 # # 3 3 M.:.3 = + 3 3 3 3 4 = = = = $ 7 E 7 E E E E tXE tXtXtXtXtXE tXtXtXE E tXE E 7 7 & $ : 4 3 3 3 3 3 h h h h Z < 3 ",
"    3 # 3 3 3 3 3 3 5 ; 4 Z R ; 2 - = = ; m $ & & E E E tXE tXtXtXtXtXtXtXtXtXtXtXtXtXE E 7 7 & & $ 3 ; = 3 3 3 h h h h h h < 3 ",
"3 3   3 3 3 3 = = 4 4 S C ; = ; ; b J Z L K , $ $ & & E E tXtX& & tXtXtXtXtXtX& & X tXE E 7 & & $ 8 l 4 = = 3 = 4 h h h h 3 3 3 ",
"3 3   3 3 = = 4 4 = F C ; z f d i A w M G h h h h $ & E E tX% C.C.& tXtXtXtX% C.E C.% tXE & & $ x x > d 3 = H < 3 3 h h = 4 3 3 ",
"  3 3 3 = : ; 8 0 m N q k j f g p h h h h h h h h $ & E 7 tXT B.Y X Y tXtXtXX B.T C.% C.E & & O h f f V d 3 = 4 Z y u B 3 3 3 3 ",
"3 3 3 3 3 Z Z n < Z < d d h h h h h h h . . . . . . % & % C.C.Y X O O tXtX% X % % C.% Y & & O . . . . . . s 3 = 3 3 = 4 Z y < 3 ",
"3 3   3 Z I < h h h h h h h h h h h f . C.% % % X O . & C.T T % O O tXtXtX% C.. % T C.O & . . O O O % % % . y 3 4 3 3 3 3 3   3 ",
"3 3 3 3 ; 1 h h h h h h h h f x f B.B.. O O O O % % C.C.T Y % O . . tX% % C.Y O O % % T X % O O O O O O O O B.B.B.3 3 3 3 3 3 3 ",
"3 3 3 3 = h h h h h h f x f h h B.C.C.. O O Y Y % C.T X O Y Y O . % T % . T Y % O O % T Y O % % % % X . . . B.B.B.B.3 3 3 3 3 3 ",
"3 3 3 3 r 9 f f x f f h h h h B.C.C.. . . % Y Y C.T T Y Y O O . % T Y O . Y C.T O . O Y T Y Y . X % % % X . . B.B.B.B.3 3 3 3 3 ",
"3 3 3 Z i < h h h h h h h h B.C.C.. % T T Y O C.T C.X % O O . . C.T Y O . Y C.X Y . O Y X % X X . O O Y % % C.X Y B.B.B.3 3 3 3 ",
"3 3 3 3 3 d g g d d d a P B.C.C.D . % % % . T T T O % O O . . C.T T Y O . Y O X T O . O % O % Y Y . O O O % % . Y B.B.B.B.3 3 3 ",
"3 3 3 3 ; h h v v c x e B.C.C.C.o . T O % X C.T O % O O . . T T C.% O O . Y T T % O . . . Y Y B.C.X X O O O T . O o B.B.B.B.3 3 ",
"3 3 3 y = 3 h h h ; 3 B.C.C.o B.C.C.. . T T X T O O O . O O % C.Y O O . . O $ C.% O O o . O O T Y X Y Y . . . o o o B.C.X C.B.3 ",
"3 3 3 Z 3 y y g 3 = 3 B.C.C.C.C.C.C.o o T Y T X O . . . O C.C.T O O O . . O % Y C.T O . o . O O X T T X o D o o o Y B.C.C.C.B.3 ",
"3 3 3 3 3 Z Z t 3 y y 3 B.C.C.C.C.C.C.B.% T % T . . o o X X X C.O O . . . O % C.X X O O . . . O Y T T O o o o C.C.C.C.C.B.B.3 3 ",
"3 3 3 3 3 3 3 = 3 Z Z 3 3 B.C.C.C.C.C.C.Y O O O . o o D X T Y X O . . o O . % X T Y T O D o o O . O X . o o o D T C.C.C.B.3 3 3 ",
"3 3 3 3 3 3 3 3 3 3 3 3 3 3 B.B.C.C.C.C.C.Y Y Y Y C.D O O % T T O . O o D O . T Y T X O o C.C.C.B.Y Y Y Y C.C.C.C.C.B.B.3 3 3 3 ",
"3 3 3 3 3 3 3 3 3 3 3 3 3 < 3 3 B.B.B.C.C.C.C.C.C.C.C.C.Y O O O . Y Y C.C.C.o . O O . o o C.C.C.C.C.C.C.C.C.C.B.B.B.3 3 3 3 3 3 ",
"3 3 3 3 3 3 3 3 3 3 3 3 3 3 3 h h h 3 B.B.B.B.C.C.C.D C.C.C.Y Y Y Y C.C.D C.C.Y Y Y Y Y C.T B.C.C.C.B.B.B.B.B.y s Z 3 3 3 3 3 3 ",
"3 3 3 3 3 3 3 3 3 3 3 3 3 3 h h h h h < 3 3 3 B.B.B.B.B.B.C.C.C.C.C.C.C.C.C.C.C.C.C.C.C.B.B.B.B.B.B.3 3 3 3 3 3 3 3 3 3 3 3 3 3 ",
"3 3 3 3 3 3 3 3 3 3 3 3 3 4 3 h h h 3 3 3 3 3 3 3 3 3 3 3 B.B.B.B.B.B.B.B.B.B.B.B.B.B.B.3 3 3 3 3 3 3 3 3 3 3 3 3 3 3 3 3 3 3 3 ",
"3 3 3 3 3 3 3 3 3 3 3 3 < 3 3 3 h 3 4 3 3 3 3 3 3 3 3 3 3 3 3 3 3 3 3 # 3 3 3 3 3 3 3 3 3 3 3 3 3 3 3 3 3 3 3 3 3 3 3 3 3 3 3 3 ",
"3 3 3 3 3 3 3 3 3 3 3 3 3 3 < 6 B @ 3 :.3 3 3 3 3 3 3 3 3 3 3 3 3 3 3 3 3 3 3 3 :.3 3 3 3 3 3 3 3 3 3 3 3 3 3 3 3 3 3 3 3 3 3 3 "
};
