/* XPM */
static char *result[] = {
/* columns rows colors chars-per-pixel */
"64 64 6 1 ",
"  c black",
". c gray38",
"X c #747474",
"o c #FFC20E",
"O c #9D9D9D",
"+ c #BCBCBC",
/* pixels */
"   XXOOO+XXXXOXXXXXOXXXOOOOOO OOO+ ..XXXXXXX..XXXX..XXXXXXX..   ",
"   XXXXXOXXXO.XXXXXXXOO+OOOOO ...O XXXXXXXXXX.XXXXXXXXXXXXXX.   ",
"   XXXXXXXOO+.XXXXX.XOOO+++OO oooo XXXXO+OOXXXXXXXXXXXO+OOXXX   ",
"   XXXXX.XOOO.OOOOO.OXXXOOO++ oooo XXXXXXX....OOOOXXXXXXX....   ",
"   OOOOO.OXXXO+OOOOOOOXXXXXOO oooo OOOOXXOOOOO+OOOOOOOXXOOOOO   ",
"   +OOOOOOOXXOO++O++..XXXXXX. oooo +OOOOO+OOOOO++O+OOOOO+OOOO   ",
"   O++O++..XXXXOOOOO..XXXXX.. oooo O++OOOO+++OXOOOO++OOOO+++O   ",
"   XOOOOO..XXXXXXX..XXXXXOXXX oooo XOOOXXXOOO+XXXXXOOOXXXOOO+   ",
"   XXXX..XXXXXXXXXX.XXXXXXXOO oooo XXXXOXXXXXOXXXXXXXXOXXXXXO   ",
"   XXXXX.XXXXO+OOXXXXXXXX.XOO oooo XXXX.XXXXXX+OOXXXXX.XXXXXX   ",
"   +OOXXXXXXXXXX....OOOOO.OXX oooo +OOX.XXXXX.XX..+OOX.XXXXX.   ",
"   XX....OOOOXXOOOOO+OOOOOOOX oooo XX...OOOOO.XOOOXX...OOOOO.   ",
"   XOOOOO+OOOOO+OOOOO++O++..X oooo +XXXXOXXXXXOXXX+XXXXOXXXXX   ",
"   O+OOOOO++OOOO+++OXOOOOO..X OOO+ OXXXO.XXXXXXXOOOXXXO.XXXXX   ",
"   OO+++OXOOOXXXOOO+XXXX....O ...O XXOO+.XXXXX.XOOXXOO+.XXXXX   ",
"   XXOOO+XXXXOXXXXXOXXXXX.OO+ oooo .XOOO.OOOOO.OXX..XXXXXXX..   ",
"   XXXXXOXXXX.XXXXXX+OOXXXX.. oooo .OXXXO+OOOOOOOXXXXXXXXXXX.   ",
"   XXXXXX+OOX.XXXXX.XX......O oooo ..XXXXXXX..XXXXXXXXO+OOXXX   ",
"   XXXXX.XX...OOOOO.XOOOOOOOO oooo XXXXXXXXXX.XXXXXXXXXXX....   ",
"   XXXOOO+XXXXOXXXXXOXXXOOOOO oooo XXXXO+OOXXXXXXXOOOOXXOOOOO   ",
"   OXXXXXOXXXO.XXXXXXXOO+OOOO oooo XXXXXXX....OOOO+OOOOO+OOOO   ",
"   .XXXXXXXOO+.XXXXX.XOOO+++O oooo OOOOXXOOOOO+OOOO++OOOO+++O   ",
"   .XXXXX.XOOO.OOOOO.OXXXOOO+ oooo +OOOOO+OOOOO++OXOOOXXXOOO+   ",
"   .OOOOO.OXXXO+OOOOOOOXXXXXO oooo O++OOOO+++OXOOOXXXXOXXXXXO   ",
"   XXXXOXXXO.XXXXXXXOO+OOOOXX oooo XOOOXXXOOO+XXXXXXXX.XXXXXX   ",
"   XXXXXXOO+.XXXXX.XOOO+++OX. OOO+ XXXXOXXXXXOXXXX+OOX.XXXXX.   ",
"   XXXX.XOOO.OOOOO.OXXXOOOOXX ...O XXXX.XXXXXX+OOXXX...OOOOO.   ",
"   OOOO.OXXXO+OOOOOOOXXXXX+XO oooo +OOX.XXXXX.XX..+XXXXOXXXXX   ",
"   OOOOOOOXXOO++O++..XXXXXOXO oooo XX...OOOOO.XOOOOXXXO.XXXXX   ",
"   ++O++..XXXX..XXXXXXX..XXXX oooo +XXXXOXXXXXOXXXXXOO+.XXXXX   ",
"   OOOOO..XXXXXXXXXXXXXX.XXXX oooo OXXXO.XXXXXXXOO.XOOO.OOOOO   ",
"   XXX..XXXXXXXXXXO+OOXXXXXXX oooo XXOO+.XXXXX.XOO.OXXXO+OOOO   ",
"   XXXX.XXXXO+XXXXXXX....OOOO oooo .XOOO.OOOOO.OXXXXO.XXXXXXX   ",
"   OOXXXXXXXXXOOOOXXOOOOO+OOO oooo .OXXXO+OOOOOOOXOO+.XXXXX.X   ",
"   X....OOOOXX+OOOOO+OOOOO++O oooo XXO.XXXXXXXOO+OOOO.OOOOO.O   ",
"   OOOOO+OOOOOO++OOOO+++OXOOO oooo OO+.XXXXX.XOOO+XXXO+OOOOOO   ",
"   +OOOOO++OOOXOOOXXXOOO+XXXX oooo OOO.OOOOO.OXXXOOXXOO++O++.   ",
"   O+++OXOOOXXXXXXOXXXXXOXXXX oooo XXXO+OOOOOOOXXX.XXXXOOOOO.   ",
"   XOOO+XXXXOXXXXX.XXXXXX+OOX oooo OXXOO++O++..XXX.XXXXXXX..X   ",
"   XXXXOXXXX.X+OOX.XXXXX.XX.. OOO+ .XXXXOOOOO..XXXXXXXXXXXX.X   ",
"   XXXXX+OOX.XXX...OOOOO.XOOO ...O .XXXXXXX..XXXXXXXXO+OOXXXX   ",
"   XXXX.XX...O+XXXXOXXXXXOXXX oooo XXXXXXXXX.XXXXXXXXXXX....O   ",
"   XXOOO+XXXXOOXXXO.XXXXXXXOO oooo XXXO+OOXXXXXXXXOOOXXOOOOO+   ",
"   XXXXXOXXXO.XXOO+.XXXXX.XOO oooo XXXXXX....OOOOOOOOOO+OOOOO   ",
"   XXXXXXXOO+..XOOO.OOOOO.OXX oooo OOOXXOOOOO+OOOO++OOOO+++OX   ",
"   XXXXX.XOOO..OXXXO+OOOOOOOX oooo OOOOO+OOOOO++O+OOOXXXOOO+X   ",
"   OOOOO.OXXXOXXO.XXXXXXXOO+O oooo ++OOOO+++OXOOOOXXXOXXXXXOX   ",
"   OOO+XXXXOXXOO+.XXXXX.XOOO+ oooo OOOXXXOOO+XXXX.XXX.XXXXXX+   ",
"   XXXOXXXO.XXOOO.OOOOO.OXXXO oooo XXXOXXXXXOXXXXXOOX.XXXXX.X   ",
"   XXXXXOO+.XXXXXO+OOOOOOOXXX oooo XXX.XXXXXX+OOXXX...OOOOO.X   ",
"   XXX.XOOO.OOOXXOO++O++..XXX oooo OOX.XXXXX.XX...XXXXOXXXXXO   ",
"   OOO.OXXXO+O.XXXXOOOOO..XXX OOO+ X...OOOOO.XOOOOXXXO.XXXXXX   ",
"   OOOOOOXXOO+.XXXXXXX..XXXXX OOO+ XXXXOXXXXXOXXXOXOO+.XXXXX.   ",
"   +O++..XXXXOXXXXXXXXX.XXXXX ...O XXXO.XXXXXXXOO+XOOO.OOOOO.   ",
"   OOOO..XXXXXXXXO+OOXXXXXXXX oooo XOO+.XXXXX.XOOOOXXXO+OOOOO   ",
"   XX..XXXXXXXXXXXXX....OOOOO oooo XOOO.OOOOO.OXXXXXOXXXXXOXX   ",
"   XXX.XXXXO+OOOOXXOOOOO+OOOO oooo OXXXO+OOOOOOOXXXO.XXXXXXXO   ",
"   OXXXXXXXXXXOOOOO+OOOOO++O+ oooo XXOXXXXXOXXXOOOO+.XXXXX.XO   ",
"   ....OOOOXXO++OOOO+++OXOOOO oooo XO.XXXXXXXOO+OOOO.OOOOO.OX   ",
"   OOOO+OOOOO+OOOXXXOOO+XXXX. oooo O+.XXXXX.XOOO++XXO+OOOOOOO   ",
"   OOOOO++OOOOXXXOXXXXXOXXXXX oooo OO.OOOOO.OXXXOOXXOO++O++..   ",
"   +++OXOOOXXXXXX.XXXXXX+OOXX oooo XXO+OOOOOOOXXXXXXXXOOOOO..   ",
"   OOO+XXXXOXXOOX.XXXXX.XX... oooo XXOO++O++..XXXXXXXXXXX..XX   ",
"   XXXOXXXX.XXX...OOOOO.XOOOO oooo XXXXOOOOO..XXXXXXXXXXXX.XX   "
};
