/* XPM */
static char *result[] = {
/* columns rows colors chars-per-pixel */
"64 64 21 1 ",
"  c black",
". c #1D1D1D",
"X c #39393B",
"o c #434343",
"O c gray38",
"+ c gray39",
"@ c #747474",
"# c #ED1C24",
"$ c #F32D2E",
"% c #EFB20C",
"& c #FFC20E",
"* c #FFE97A",
"= c #154EF5",
"- c #5F9BB3",
"; c #77BCDB",
": c #9D9D9D",
"> c #ABABAD",
", c #BCBCBC",
"< c #9ED4E0",
"1 c #A6DCE6",
"2 c #E8ECED",
/* pixels */
"   @@:::,@@@@:@@@@@:@@@:::::: :::, OO@@@@@@@OO@@@@OO@@@@@@@OO   ",
"   @@@@@:@@@:O@@@@@@@::,::::: OOO: @@@@@@@@@@O@@@@@@@@@@@@@@O   ",
"   @@@@@@@::,O@@@@@O@:::,,,:: &&&& @@@@:,::@@@@@@@@@@@:,::@@@   ",
"   @@@@@O@:::O:::::O:@@@:::,, &&&& @@@@@@@OOOO::::@@@@@@@OOOO   ",
"   :::::O:@@@:,:::::::@@@@@:: &&&& ::::@@:::::,:::::::@@:::::   ",
"   ,:::::::@@::,..----...........................:,:::::,::::   ",
"   :,,:,,OO@@@@.$$----.......-------......----$$$.:,,::::,,,:   ",
"   @:::::OO@@@@.$$----.......-------......----$$$.@:::@@@:::,   ",
"   @@@@OO@@@@@.$$$....====###.............---.-$$$.@@@:@@@@@:   ",
"   @@@@@O@@@@:.---....====###..>>>..###===.....---.@@@O@@@@@@   ",
"   ,::@@@@@@@@.-..>..=====###.......###=====..<..-.::@O@@@@@O   ",
"   @@OOOO::::@.-..2..=====###.......###=====..<..-.@OOO:::::O   ",
"   @:::::,:::.--..2..=====###2222222###=====..<..--.@@@:@@@@@   ",
"   :,:::::,,:.--..2..=====###2222222###=====..<..--.@@:O@@@@@   ",
"   ::,,,:@:::.--..222........2222222........2.<..--.::,O@@@@@   ",
"   @@:::,@@@@.--..222........2222222........2.<..--.@@@@@@@OO   ",
"   @@@@@:@@@@.--..222.22222222222222222222..2.<..--.@@@@@@@@O   ",
"   @@@@@@,::@.--..<.222...................222.<..--.@@:,::@@@   ",
"   @@@@@O@@OO.--..<.222...................222.<..--.@@@@@OOOO   ",
"   @@@:::,@@@.--...>22.<<<<<<<<<<<<<<<<<<<.22>...--.::@@:::::   ",
"   :@@@@@:@@@.--..>2..<<<<<<<<<<<<<<<<<<<<<..2>..--.::::,::::   ",
"   O@@@@@@@::.--..22..<<<<<<<111<<<<<<<<<<<..22..--.,::::,,,:   ",
"   O@@@@@O@::.--..22..<<<<<<<111<<<<<<<<<<<..22..--.::@@@:::,   ",
"   O:::::O:@@@.-..2.<<<<<<<<111<<<<<<<<<<<<<<.2..-.@@@:@@@@@:   ",
"   @@@@:@@@:O@.-..2.<<<<<<<11<<<1<<<<<<<<<<<<.2..-.@@@O@@@@@@   ",
"   @@@@@@::,O@.-..2.<<<<<111<<<1<<<<<<<<<<<<<.2..-.::@O@@@@@O   ",
"   @@@@O@:::O:.-..2.<<<<<111<<<1<<<<<<<<<<<<<.2..-.@OOO:::::O   ",
"   ::::O:@@@:,.-..2.<<<<111<<11<<<<<<<<<<<<<<.2..-.@@@@:@@@@@   ",
"   :::::::@.....22.<<<<11<<<1<<<<<<<++++++<<<<.22.....:O@@@@@   ",
"   ,,:,,OO.>>>>>22.<<<<<<<<<<<<<<<+++<<<<++<<<.22>>>>>.O@@@@@   ",
"   :::::OO.>>>>>22.<<<<<<<<<<<<<<<+++<<<<++<<<.22>>>>>.O:::::   ",
"   @@@OO@@.>>>>>22.<<<<<<<<<<<<<<<++<++++<+<<<.22>>>>>.:,::::   ",
"   @@@@O@@@.......;...........................;.......@@@@@@@   ",
"   ::@@@@@@@@@.-;;;-;;;;;;;;;;;;;;;;;;;;;;;;;-;;;-.:,O@@@@@O@   ",
"   @OOOO::::@@.-;;;-;;;;;;;;;;;;;;;;;;;;;;;;;-;;;-.::O:::::O:   ",
"   :::::,:::::.-;;;-;;;;;;;;;;;;;;;;;;;;;;;;;-;;;-.@@:,::::::   ",
"   ,:::::,,:::.-;;;-;;;;;;;;;;;;;;;;;;;;;;;;;-;;;-.@@::,,:,,O   ",
"   :,,,:@:::@.--;;;;--;;;;;;;;;;;;;;;;;;;;;--;;;;--.@@@:::::O   ",
"   @:::,@@@@:.--;;;;--;;;;;;;;;;;;;;;;;;;;;--;;;;--.@@@@@@OO@   ",
"   @@@@:@@@@O.--;;;;--;;;;;;;;;;;;;;;;;;;;;--;;;;--.@@@@@@@O@   ",
"   @@@@@,::@O.--;;;;;;-;;;;;;;;;;;;;;;;;;;-;;;;;;--.@:,::@@@@   ",
"   @@@@O@@OOO.--;;;;;;-;;;;;;;;;;;;;;;;;;;-;;;;;;--.@@@@OOOO:   ",
"   @@:::,@@@@.--;;;;;;-;;;;;;;;;;;;;;;;;;;-;;;;;;--.:@@:::::,   ",
"   @@@@@:@@@:.--;;;;;;;-;;;;;;;;;;;;;;;;;-;;;;;;;--.:::,:::::   ",
"   @@@@@@@::,.--;;;;;;;-;;;;;;;;;;;;;;;;;-;;;;;;;--.::::,,,:@   ",
"   @@@@@O@:::.--;;;;;;;-;;;;;;;;;;;;;;;;;-;;;;;;;--.:@@@:::,@   ",
"   :::::O:@@@.--;;%%%%;;-;;;;;;;;;;;;;;;-;;%%%%;;--.@:@@@@@:@   ",
"   :::,@@@@:@.--%%****%;-;;;;;;;;;;;;;;;-;%****%%--.@O@@@@@@,   ",
"   @@@:@@@:O@.--%%****%;-+++++++++++++++-;%****%%--.@O@@@@@O@   ",
"   @@@@@::,O@.--%%****%;-+++++++++++++++-;%****%%--.OO:::::O@   ",
"   @@@O@:::O::.-;;%%%%;;+oo+o++o+o++o+oo+;;%%%%;;-.@@@:@@@@@:   ",
"   :::O:@@@:,:.-;;;;;;;;+oo+o++o+o++o+oo+;;;;;;;;-.@@:O@@@@@@   ",
"   ::::::@@::,.-----------------------------------.::,O@@@@@O   ",
"   ,:,,OO@@@@:.-----------------------------------.:::O:::::O   ",
"   ::::OO@@@@@@.---------------------------------.:@@@:,:::::   ",
"   @@OO@@@@@@@@.XXXXXX.....................XXXXXX.@@:@@@@@:@@   ",
"   @@@O@@@@:,::.XXXXXX.:,:::: &&&& :@@@:,:.XXXXXX.@:O@@@@@@@:   ",
"   :@@@@@@@@@@:.XXXXXX.::,,:, &&&& @@:@@@@.XXXXXX.:,O@@@@@O@:   ",
"   OOOO::::@@:,,......,:@:::: &&&& @:O@@@@@......:::O:::::O:@   ",
"   ::::,:::::,:::@@@:::,@@@@O &&&& :,O@@@@@O@:::,,@@:,:::::::   ",
"   :::::,,::::@@@:@@@@@:@@@@@ &&&& ::O:::::O:@@@::@@::,,:,,OO   ",
"   ,,,:@:::@@@@@@O@@@@@@,::@@ &&&& @@:,:::::::@@@@@@@@:::::OO   ",
"   :::,@@@@:@@::@O@@@@@O@@OOO &&&& @@::,,:,,OO@@@@@@@@@@@OO@@   ",
"   @@@:@@@@O@@@OOO:::::O@:::: &&&& @@@@:::::OO@@@@@@@@@@@@O@@   "
};
