/* XPM */
static char *result[] = {
/* columns rows colors chars-per-pixel */
"64 64 20 1 ",
"  c black",
". c #1D1D1D",
"X c #39393B",
"o c #434343",
"O c gray38",
"+ c gray39",
"@ c #747474",
"# c #F32D2E",
"$ c #EFB20C",
"% c #FFC20E",
"& c #FFE97A",
"* c #154EF5",
"= c #5F9BB3",
"- c #77BCDB",
"; c #9D9D9D",
": c #ABABAD",
"> c #BCBCBC",
", c #9ED4E0",
"< c #A6DCE6",
"1 c #E8ECED",
/* pixels */
"   @@;;;>@@@@;@@@@@;@@@;;;;;; ;;;> OO@@@@@@@OO@@@@OO@@@@@@@OO   ",
"   @@@@@;@@@;O@@@@@@@;;>;;;;; OOO; @@@@@@@@@@O@@@@@@@@@@@@@@O   ",
"   @@@@@@@;;>O@@@@@O@;;;>>>;; %%%% @@@@;>;;@@@@@@@@@@@;>;;@@@   ",
"   @@@@@O@;;;O;;;;;O;@@@;;;>> %%%% @@@@@@@OOOO;;;;@@@@@@@OOOO   ",
"   ;;;;;O;@@@;>;;;;;;;@@@@@;; %%%% ;;;;@@;;;;;>;;;;;;;@@;;;;;   ",
"   >;;;;;;;@@;;>..====...........................;>;;;;;>;;;;   ",
"   ;>>;>>OO@@@@.##====.......=======......====###.;>>;;;;>>>;   ",
"   @;;;;;OO@@@@.##====.......=======......====###.@;;;@@@;;;>   ",
"   @@@@OO@@@@@.###....####***.............===.=###.@@@;@@@@@;   ",
"   @@@@@O@@@@;.===....####***..:::..***###.....===.@@@O@@@@@@   ",
"   >;;@@@@@@@@.=..:..#####***.......***#####..,..=.;;@O@@@@@O   ",
"   @@OOOO;;;;@.=..1..#####***.......***#####..,..=.@OOO;;;;;O   ",
"   @;;;;;>;;;.==..1..#####***1111111***#####..,..==.@@@;@@@@@   ",
"   ;>;;;;;>>;.==..1..#####***1111111***#####..,..==.@@;O@@@@@   ",
"   ;;>>>;@;;;.==..111........1111111........1.,..==.;;>O@@@@@   ",
"   @@;;;>@@@@.==..111........1111111........1.,..==.@@@@@@@OO   ",
"   @@@@@;@@@@.==..111.11111111111111111111..1.,..==.@@@@@@@@O   ",
"   @@@@@@>;;@.==..,.111...................111.,..==.@@;>;;@@@   ",
"   @@@@@O@@OO.==..,.111...................111.,..==.@@@@@OOOO   ",
"   @@@;;;>@@@.==...:11.,,,,,,,,,,,,,,,,,,,.11:...==.;;@@;;;;;   ",
"   ;@@@@@;@@@.==..:1..,,,,,,,,,,,,,,,,,,,,,..1:..==.;;;;>;;;;   ",
"   O@@@@@@@;;.==..11..,,,,,,,<<<,,,,,,,,,,,..11..==.>;;;;>>>;   ",
"   O@@@@@O@;;.==..11..,,,,,,,<<<,,,,,,,,,,,..11..==.;;@@@;;;>   ",
"   O;;;;;O;@@@.=..1.,,,,,,,,<<<,,,,,,,,,,,,,,.1..=.@@@;@@@@@;   ",
"   @@@@;@@@;O@.=..1.,,,,,,,<<,,,<,,,,,,,,,,,,.1..=.@@@O@@@@@@   ",
"   @@@@@@;;>O@.=..1.,,,,,<<<,,,<,,,,,,,,,,,,,.1..=.;;@O@@@@@O   ",
"   @@@@O@;;;O;.=..1.,,,,,<<<,,,<,,,,,,,,,,,,,.1..=.@OOO;;;;;O   ",
"   ;;;;O;@@@;>.=..1.,,,,<<<,,<<,,,,,,,,,,,,,,.1..=.@@@@;@@@@@   ",
"   ;;;;;;;@.....11.,,,,<<,,,<,,,,,,,++++++,,,,.11.....;O@@@@@   ",
"   >>;>>OO.:::::11.,,,,,,,,,,,,,,,+++,,,,++,,,.11:::::.O@@@@@   ",
"   ;;;;;OO.:::::11.,,,,,,,,,,,,,,,+++,,,,++,,,.11:::::.O;;;;;   ",
"   @@@OO@@.:::::11.,,,,,,,,,,,,,,,++,++++,+,,,.11:::::.;>;;;;   ",
"   @@@@O@@@.......-...........................-.......@@@@@@@   ",
"   ;;@@@@@@@@@.=---=-------------------------=---=.;>O@@@@@O@   ",
"   @OOOO;;;;@@.=---=-------------------------=---=.;;O;;;;;O;   ",
"   ;;;;;>;;;;;.=---=-------------------------=---=.@@;>;;;;;;   ",
"   >;;;;;>>;;;.=---=-------------------------=---=.@@;;>>;>>O   ",
"   ;>>>;@;;;@.==----==---------------------==----==.@@@;;;;;O   ",
"   @;;;>@@@@;.==----==---------------------==----==.@@@@@@OO@   ",
"   @@@@;@@@@O.==----==---------------------==----==.@@@@@@@O@   ",
"   @@@@@>;;@O.==------=-------------------=------==.@;>;;@@@@   ",
"   @@@@O@@OOO.==------=-------------------=------==.@@@@OOOO;   ",
"   @@;;;>@@@@.==------=-------------------=------==.;@@;;;;;>   ",
"   @@@@@;@@@;.==-------=-----------------=-------==.;;;>;;;;;   ",
"   @@@@@@@;;>.==-------=-----------------=-------==.;;;;>>>;@   ",
"   @@@@@O@;;;.==-------=-----------------=-------==.;@@@;;;>@   ",
"   ;;;;;O;@@@.==--$$$$--=---------------=--$$$$--==.@;@@@@@;@   ",
"   ;;;>@@@@;@.==$$&&&&$-=---------------=-$&&&&$$==.@O@@@@@@>   ",
"   @@@;@@@;O@.==$$&&&&$-=+++++++++++++++=-$&&&&$$==.@O@@@@@O@   ",
"   @@@@@;;>O@.==$$&&&&$-=+++++++++++++++=-$&&&&$$==.OO;;;;;O@   ",
"   @@@O@;;;O;;.=--$$$$--+oo+o++o+o++o+oo+--$$$$--=.@@@;@@@@@;   ",
"   ;;;O;@@@;>;.=--------+oo+o++o+o++o+oo+--------=.@@;O@@@@@@   ",
"   ;;;;;;@@;;>.===================================.;;>O@@@@@O   ",
"   >;>>OO@@@@;.===================================.;;;O;;;;;O   ",
"   ;;;;OO@@@@@@.=================================.;@@@;>;;;;;   ",
"   @@OO@@@@@@@@.XXXXXX.....................XXXXXX.@@;@@@@@;@@   ",
"   @@@O@@@@;>;;.XXXXXX.;>;;;; %%%% ;@@@;>;.XXXXXX.@;O@@@@@@@;   ",
"   ;@@@@@@@@@@;.XXXXXX.;;>>;> %%%% @@;@@@@.XXXXXX.;>O@@@@@O@;   ",
"   OOOO;;;;@@;>>......>;@;;;; %%%% @;O@@@@@......;;;O;;;;;O;@   ",
"   ;;;;>;;;;;>;;;@@@;;;>@@@@O %%%% ;>O@@@@@O@;;;>>@@;>;;;;;;;   ",
"   ;;;;;>>;;;;@@@;@@@@@;@@@@@ %%%% ;;O;;;;;O;@@@;;@@;;>>;>>OO   ",
"   >>>;@;;;@@@@@@O@@@@@@>;;@@ %%%% @@;>;;;;;;;@@@@@@@@;;;;;OO   ",
"   ;;;>@@@@;@@;;@O@@@@@O@@OOO %%%% @@;;>>;>>OO@@@@@@@@@@@OO@@   ",
"   @@@;@@@@O@@@OOO;;;;;O@;;;; %%%% @@@@;;;;;OO@@@@@@@@@@@@O@@   "
};
