/* XPM */
static char *result[] = {
/* columns rows colors chars-per-pixel */
"64 64 97 2 ",
"   c #9A383A",
".  c #9B383A",
"X  c #9C393B",
"o  c #9D393B",
"O  c #9E393B",
"+  c #9E3A3C",
"@  c #9F3A3C",
"#  c #A03A3C",
"$  c #A03B3D",
"%  c #A23C3E",
"&  c #A33C3E",
"*  c #A53D3F",
"=  c #A63E40",
"-  c #A73F41",
";  c #A83F41",
":  c #A94042",
">  c #AA4042",
",  c #AA4143",
"<  c #AB4143",
"1  c #AC4244",
"2  c #AD4345",
"3  c #AF4446",
"4  c #B04446",
"5  c #B14547",
"6  c #B24648",
"7  c #B34749",
"8  c #B5484A",
"9  c #B6494B",
"0  c #B7494B",
"q  c #B84A4C",
"w  c #B84B4D",
"e  c #BA4B4D",
"r  c #BA4C4E",
"t  c #BB4C4E",
"y  c #BC8A8B",
"u  c #BF9192",
"i  c #C19091",
"p  c #C29192",
"a  c #C39192",
"s  c #C39293",
"d  c #C49293",
"f  c #C49394",
"g  c #C49495",
"h  c #C59495",
"j  c #C59597",
"k  c #C69596",
"l  c #C49698",
"z  c #C59799",
"x  c #C69698",
"c  c #C79799",
"v  c #C59899",
"b  c #C4999A",
"n  c #C6989A",
"m  c #C6999A",
"M  c #C39B9C",
"N  c #C49C9D",
"B  c #C49D9E",
"V  c #C59E9F",
"C  c #C8999B",
"Z  c #C89A9C",
"A  c #C99B9C",
"S  c #C89B9D",
"D  c #C99B9D",
"F  c #CB9B9D",
"G  c #C99C9E",
"H  c #CB9D9E",
"J  c #C89E9F",
"K  c #CA9E9F",
"L  c #C99FA0",
"P  c #CB9EA0",
"I  c #CA9FA1",
"U  c #CC9EA0",
"Y  c #C9A0A1",
"T  c #CAA0A1",
"R  c #CBA1A2",
"E  c #CBA1A3",
"W  c #CCA2A4",
"Q  c #CCA3A5",
"!  c #CDA3A5",
"~  c #CFA3A5",
"^  c #CAA4A5",
"/  c #CBA5A7",
"(  c #CDA4A5",
")  c #CEA4A6",
"_  c #CCA7A8",
"`  c #CEA8AA",
"'  c #CFA9AB",
"]  c #D0A6A8",
"[  c #D0A7A9",
"{  c #D1A7A9",
"}  c #D3A6A8",
"|  c #D0ABAC",
" . c #D3ABAD",
".. c #D1ACAE",
"X. c #D2ADAF",
"o. c #D5ACAE",
"O. c #D7B3B5",
/* pixels */
"8 > > > > > # o.6 > > > > > O # o.6 > > > > > O > & ~ 8 > > > > > # o.6 > > > > > O > > > > > & ~ 8 > > > > > # o.6 > > > > > O ",
"5 * * * * * O [ 2 * * * * * X O [ 2 * * * * * X * $ P 5 * * * * * O [ 2 * * * * * X * * * * * $ P 5 * * * * * O [ 2 * * * * * X ",
"d F g y f F s N k F p y x F i s N k F p y x F i F j M d F g y f F s N k F p y x F i F c y i F j M d F g y f F s N k F p y x F i ",
"0 0 3 J e 0 0 0 0 0 < C q 0 0 0 0 0 0 < C q 0 0 0 0 0 0 0 3 J e 0 0 0 0 0 < C q 0 0 0 6 a t 0 0 0 0 0 3 J e 0 0 0 0 0 < C q 0 0 ",
"> > %  .7 > > > > > @ } 3 > > > > > > @ } 3 > > > > > > > %  .7 > > > > > @ } 3 > > > * F 0 > > > > > %  .7 > > > > > @ } 3 > > ",
"& & + Q 1 & & & & & X U : & & & & & & X U : & & & & & & & + Q 1 & & & & & X U : & & & $ j 4 & & & & & + Q 1 & & & & & X U : & & ",
"v ~ S B Z ~ m u S ~ v N K ~ l m u S ~ v N K ~ l ~ G u v ~ S B Z ~ m u S ~ v N K ~ l ~ P M z ~ G u v ~ S B Z ~ m u S ~ v N K ~ l ",
"r 8 8 8 8 8 < T w 8 8 8 8 8 : < T w 8 8 8 8 8 : 8 3 n r 8 8 8 8 8 < T w 8 8 8 8 8 : 8 8 8 8 8 3 n r 8 8 8 8 8 < T w 8 8 8 8 8 : ",
"8 > > > > > # o.6 > > > > > O # o.6 > > > > > O > & ~ 8 > > > > > # o.6 > > > > > O > > > > > & ~ 8 > > > > > # o.6 > > > > > O ",
"2 % % % % % o ! , % % % % % . o ! , % % % % % . % + S 2 % % % % % o ! , % % % % % . % % % % % + S 2 % % % % % o ! , % % % % % . ",
"/ O.' V ` O._ V ' O./ V ..O.^ _ V ' O./ V ..O.^ O.| V / O.' V ` O._ V ' O./ V ..O.^ O.X.V ^ O.| V / O.' V ` O._ V ' O./ V ..O.^ ",
"7 7 < E q 7 7 7 7 7 ; H 9 7 7 7 7 7 7 ; H 9 7 7 7 7 7 7 7 < E q 7 7 7 7 7 ; H 9 7 7 7 3 h e 7 7 7 7 7 < E q 7 7 7 7 7 ; H 9 7 7 ",
"> > %  .7 > > > > > @ } 3 > > > > > > @ } 3 > > > > > > > %  .7 > > > > > @ } 3 > > > * F 0 > > > > > %  .7 > > > > > @ } 3 > > ",
"# # o Y : # # # # # . A = # # # # # # . A = # # # # # # # o Y : # # # # # . A = # # # O s 1 # # # # # o Y : # # # # # . A = # # ",
"~ ~ ( b W o.R B ( o.T b ] o.J R B ( o.T b ] o.J o.) B T o.( b W o.R B ( o.T b ] o.J o.{ b L o.) B T o.( b W o.R B ( o.T b ] o.J ",
"8 8 6 6 6 6 ; ( 9 6 6 6 6 6 = ; ( 9 6 6 6 6 6 = 6 < D w 6 6 6 6 6 ; ( 9 6 6 6 6 6 = 6 6 6 6 6 < D w 6 6 6 6 6 ; ( 9 6 6 6 6 6 = ",
"> > > > > > # o.6 > > > > > O # o.6 > > > > > O > & ~ 8 > > > > > # o.6 > > > > > O > > > > > & ~ 8 > > > > > # o.6 > > > > > O ",
"% % @ @ @ @ . I - @ @ @ @ @   . I - @ @ @ @ @   @ X v , @ @ @ @ @ . I - @ @ @ @ @   @ @ @ @ @ X v , @ @ @ @ @ . I - @ @ @ @ @   ",
"O.O.F g y f F s N k F p y x F i s N k F p y x F i F j M d F g y f F s N k F p y x F i F c y i F j M d F g y f F s N k F p y x F ",
"7 7 0 3 J e 0 0 0 0 0 < C q 0 0 0 0 0 0 < C q 0 0 0 0 0 0 0 3 J e 0 0 0 0 0 < C q 0 0 0 6 a t 0 0 0 0 0 3 J e 0 0 0 0 0 < C q 0 ",
"> > > %  .7 > > > > > @ } 3 > > > > > > @ } 3 > > > > > > > %  .7 > > > > > @ } 3 > > > * F 0 > > > > > %  .7 > > > > > @ } 3 > ",
"# # & + Q 1 & & & & & X U : & & & & & & X U : & & & & & & & + Q 1 & & & & & X U : & & & $ j 4 & & & & & + Q 1 & & & & & X U : & ",
"o.o.~ ~ ~ Z ~ m u S ~ v N K ~ l m u S ~ v N K ~ l ~ G u v ~ S B Z ~ m u S ~ v N K ~ l ~ P M z ~ G u v ~ S B Z ~ m u S ~ v N K ~ ",
"6 6 8 8 8 8 8 < T w 8 8 8 8 8 : < T w 8 8 8 8 8 : 8 3 n r 8 8 8 8 8 < T w 8 8 8 8 8 : 8 8 8 8 8 3 n r 8 8 8 8 8 < T w 8 8 8 8 8 ",
"> > > > > > > # o.6 > > > > > O # o.6 > > > > > O > & ~ 8 > > > > > # o.6 > > > > > O > > > > > & ~ 8 > > > > > # o.6 > > > > > ",
"@ @ % % % % % o ! , % % % % % . o ! , % % % % % . % + S 2 % % % % % o ! , % % % % % . % % % % % + S 2 % % % % % o ! , % % % % % ",
"v ~ S B Z ~ m u S ~ v N K ~ l m u S ~ v N K ~ l ~ G u v ~ S B Z ~ m u S ~ v N K ~ l ~ P M z ~ G u v ~ S B Z ~ m u S ~ v N K ~ l ",
"r 8 8 8 8 8 < T w 8 8 8 8 8 : < T w 8 8 8 8 8 : 8 3 n r 8 8 8 8 8 < T w 8 8 8 8 8 : 8 8 8 8 8 3 n r 8 8 8 8 8 < T w 8 8 8 8 8 : ",
"8 > > > > > # o.6 > > > > > O # o.6 > > > > > O > & ~ 8 > > > > > # o.6 > > > > > O > > > > > & ~ 8 > > > > > # o.6 > > > > > O ",
"2 % % % % % o ! , % % % % % . o ! , % % % % % . % + S 2 % % % % % o ! , % % % % % . % % % % % + S 2 % % % % % o ! , % % % % % . ",
"d F g y f F s N k F p y x F i s N k F p y x F i F j M d F g y f F s N k F p y x F i F c y i F j M d F g y f F s N k F p y x F i ",
"0 0 3 J e 0 0 0 0 0 < C q 0 0 0 0 0 0 < C q 0 0 0 0 0 0 0 3 J e 0 0 0 0 0 < C q 0 0 0 6 a t 0 0 0 0 0 3 J e 0 0 0 0 0 < C q 0 0 ",
"> > %  .7 > > > > > @ } 3 > > > > > > @ } 3 > > > > > > > %  .7 > > > > > @ } 3 > > > * F 0 > > > > > %  .7 > > > > > @ } 3 > > ",
"& & + Q 1 & & & & & X U : & & & & & & X U : & & & & & & & + Q 1 & & & & & X U : & & & $ j 4 & & & & & + Q 1 & & & & & X U : & & ",
"v ~ S B Z ~ m u S ~ v N K ~ l m u S ~ v N K ~ l ~ G u v ~ S B Z ~ m u S ~ v N K ~ l ~ P M z ~ G u v ~ S B Z ~ m u S ~ v N K ~ l ",
"r 8 8 8 8 8 < T w 8 8 8 8 8 : < T w 8 8 8 8 8 : 8 3 n r 8 8 8 8 8 < T w 8 8 8 8 8 : 8 8 8 8 8 3 n r 8 8 8 8 8 < T w 8 8 8 8 8 : ",
"8 > > > > > # o.6 > > > > > O # o.6 > > > > > O > & ~ 8 > > > > > # o.6 > > > > > O > > > > > & ~ 8 > > > > > # o.6 > > > > > O ",
"2 % % % % % o ! , % % % % % . o ! , % % % % % . % + S 2 % % % % % o ! , % % % % % . % % % % % + S 2 % % % % % o ! , % % % % % . ",
"/ O.' V ` O._ V ' O./ V ..O.^ _ V ' O./ V ..O.^ O.| V / O.' V ` O._ V ' O./ V ..O.^ O.X.V ^ O.| V / O.' V ` O._ V ' O./ V ..O.^ ",
"7 7 < E q 7 7 7 7 7 ; H 9 7 7 7 7 7 7 ; H 9 7 7 7 7 7 7 7 < E q 7 7 7 7 7 ; H 9 7 7 7 3 h e 7 7 7 7 7 < E q 7 7 7 7 7 ; H 9 7 7 ",
"> > %  .7 > > > > > @ } 3 > > > > > > @ } 3 > > > > > > > %  .7 > > > > > @ } 3 > > > * F 0 > > > > > %  .7 > > > > > @ } 3 > > ",
"# # o Y : # # # # # . A = # # # # # # . A = # # # # # # # o Y : # # # # # . A = # # # O s 1 # # # # # o Y : # # # # # . A = # # ",
"v ~ S B Z ~ m u S ~ v N K ~ l m u S ~ v N K ~ l ~ G u v ~ S B Z ~ m u S ~ v N K ~ l ~ P M z ~ G u v ~ S B Z ~ m u S ~ v N K ~ l ",
"r 8 8 8 8 8 < T w 8 8 8 8 8 : < T w 8 8 8 8 8 : 8 3 n r 8 8 8 8 8 < T w 8 8 8 8 8 : 8 8 8 8 8 3 n r 8 8 8 8 8 < T w 8 8 8 8 8 : ",
"8 > > > > > # o.6 > > > > > O # o.6 > > > > > O > & ~ 8 > > > > > # o.6 > > > > > O > > > > > & ~ 8 > > > > > # o.6 > > > > > O ",
"2 % % % % % o ! , % % % % % . o ! , % % % % % . % + S 2 % % % % % o ! , % % % % % . % % % % % + S 2 % % % % % o ! , % % % % % . ",
"/ O.' V ` O._ V ' O./ V ..O.^ _ V ' O./ V ..O.^ O.| V / O.' V ` O._ V ' O./ V ..O.^ O.X.V ^ O.| V / O.' V ` O._ V ' O./ V ..O.^ ",
"7 7 < E q 7 7 7 7 7 ; H 9 7 7 7 7 7 7 ; H 9 7 7 7 7 7 7 7 < E q 7 7 7 7 7 ; H 9 7 7 7 3 h e 7 7 7 7 7 < E q 7 7 7 7 7 ; H 9 7 7 ",
"> > %  .7 > > > > > @ } 3 > > > > > > @ } 3 > > > > > > > %  .7 > > > > > @ } 3 > > > * F 0 > > > > > %  .7 > > > > > @ } 3 > > ",
"# # o Y : # # # # # . A = # # # # # # . A = # # # # # # # o Y : # # # # # . A = # # # O s 1 # # # # # o Y : # # # # # . A = # # ",
"v ~ S B Z ~ m u S ~ v N K ~ l m u S ~ v N K ~ l ~ G u v ~ S B Z ~ m u S ~ v N K ~ l ~ P M z ~ G u v ~ S B Z ~ m u S ~ v N K ~ l ",
"r 8 8 8 8 8 < T w 8 8 8 8 8 : < T w 8 8 8 8 8 : 8 3 n r 8 8 8 8 8 < T w 8 8 8 8 8 : 8 8 8 8 8 3 n r 8 8 8 8 8 < T w 8 8 8 8 8 : ",
"8 > > > > > # o.6 > > > > > O # o.6 > > > > > O > & ~ 8 > > > > > # o.6 > > > > > O > > > > > & ~ 8 > > > > > # o.6 > > > > > O ",
"2 % % % % % o ! , % % % % % . o ! , % % % % % . % + S 2 % % % % % o ! , % % % % % . % % % % % + S 2 % % % % % o ! , % % % % % . ",
"v N K ~ l ~ P M z ~ G u v ~ S B Z ~ m u S ~ v N K ~ l Z ~ m u S ~ v N K ~ l m u S ~ v N K ~ l ~ G u v ~ S B Z ~ m u S ~ v N K ~ ",
"8 8 8 8 : 8 8 8 8 8 3 n r 8 8 8 8 8 < T w 8 8 8 8 8 : 8 8 < T w 8 8 8 8 8 : < T w 8 8 8 8 8 : 8 3 n r 8 8 8 8 8 < T w 8 8 8 8 8 ",
"> > > > O > > > > > & ~ 8 > > > > > # o.6 > > > > > O > > # o.6 > > > > > O # o.6 > > > > > O > & ~ 8 > > > > > # o.6 > > > > > ",
"% % % % . % % % % % + S 2 % % % % % o ! , % % % % % . % % o ! , % % % % % . o ! , % % % % % . % + S 2 % % % % % o ! , % % % % % ",
"/ V ..O.^ O.X.V ^ O.| V / O.' V ` O._ V ' O./ V ..O.^ ` O._ V ' O./ V ..O.^ _ V ' O./ V ..O.^ O.| V / O.' V ` O._ V ' O./ V ..O.",
"; H 9 7 7 7 3 h e 7 7 7 7 7 < E q 7 7 7 7 7 ; H 9 7 7 q 7 7 7 7 7 ; H 9 7 7 7 7 7 7 ; H 9 7 7 7 7 7 7 7 < E q 7 7 7 7 7 ; H 9 7 ",
"@ } 3 > > > * F 0 > > > > > %  .7 > > > > > @ } 3 > > 7 > > > > > @ } 3 > > > > > > @ } 3 > > > > > > > %  .7 > > > > > @ } 3 > ",
". A = # # # O s 1 # # # # # o Y : # # # # # . A = # # : # # # # # . A = # # # # # # . A = # # # # # # # o Y : # # # # # . A = # ",
"T b ] o.J o.{ b L o.) B T o.( b W o.R B ( o.T b ] o.J W o.R B ( o.T b ] o.J R B ( o.T b ] o.J o.) B T o.( b W o.R B ( o.T b ] o.",
"6 6 6 6 = 6 6 6 6 6 < D w 6 6 6 6 6 ; ( 9 6 6 6 6 6 = 6 6 ; ( 9 6 6 6 6 6 = ; ( 9 6 6 6 6 6 = 6 < D w 6 6 6 6 6 ; ( 9 6 6 6 6 6 "
};
