/* XPM */
static char *result[] = {
/* columns rows colors chars-per-pixel */
"64 64 14 1 ",
"  c black",
". c gray13",
"X c gray26",
"o c gray38",
"O c #747474",
"+ c #A41919",
"@ c #B71C1C",
"# c #B97C69",
"$ c #7CB342",
"% c #FFC20E",
"& c #9D9D9D",
"* c #B4B4B4",
"= c #BCBCBC",
"- c #E59A82",
/* pixels */
"   OO&&&=OOOO&OOOOO&OOO&&&&&& &&&= ooOOOOOOOooOOOOooOOOOOOOoo   ",
"   OOOOO&OOO&oOOOOOOO&&=&&&&& ooo& OOOOOOOOOOoOOOOOOOOOOOOOOo   ",
"   OOOOOOO&&=oOOOOOoO&&&===&& %%%% OOOO&=&&OOOOOOOOOOO&=&&OOO   ",
"   OOOOOoO&&&o&&&&&o&OOO&&&== %%%% OOOOOOOoooo&&&&OOOOOOOoooo   ",
"   &&&&&o&OOO&=&&&&&&&OOOOO&& %%%% &&&&OO&&&&&=&&&&&&&OO&&&&&   ",
"   =&&&&&&&OO&&==&==ooOOOOOOo %%%% =&&&&&=&&&&&==&=&&&&&=&&&&   ",
"   &==&==ooOOOO&&&&&ooOOOOOoo %%%% &==&&&&===&O&&&&==&&&&===&   ",
"   O&&&&&ooOOOOOOOooOOOOO&OOO %%%% O&&&OOO&&&=OOOOO&&&OOO&&&=   ",
"   OOOOooOOOOOOOOOOoOOOOOOO&& %%%% OOOO&OOOOO&OOOOOOOO&OOOOO&   ",
"   OOOOOoOOOO&=&&OOOOOOOOoO&& %%%% OOOOoOOOOOO=&&OOOOOoOOOOOO   ",
"   =&&OOOOOOOOOOoooo&&&&&o&OO %%%% =&&OoOOOOOoOOoo=&&OoOOOOOo   ",
"   OOoooo&&&&OO&&&&&=&&&***-+-#+-#-++***&&&&&oO&&&OOooo&&&&&o   ",
"   O&&&&&=&&&&&=&&&&&==&*--+-#--#++-#-#*&OOOOO&OOO=OOOO&OOOOO   ",
"   &=&&&&&==&&&&===&O&  -##-+-#+-#-++#-#  OOOOOO&&&OOO&oOOOOO   ",
"   &&===&O&&&OOO&&&=OO  #--+-#--#++-#-#-  OOOOoO&&OO&&=oOOOOO   ",
"   OO&&&=OOOO&OOOOO&  $$@@@@$$$$$$@@@@$$$$  &&o&OOooOOOOOOOoo   ",
"   OOOOO&OOOOoOOOOOO  $$@@@@$$$$$$@@@@$$$$  &&&&&OOOOOOOOOOOo   ",
"   OOOOOO=&&OoOOOOOo  $$@@@@$$$$$$@@@@$$$$  ooOOOOOOOO&=&&OOO   ",
"   OOOOOoOOooo&&&&&o  $$@@@@$$$$$$@@@@$$$$  OoOOOOOOOOOOOoooo   ",
"   OOO&&&=OOOO&OOOOO  $$@@@@$$$$$$@@@@$$$$  OOOOOO&&&&OO&&&&&   ",
"   &OOOOO&OOO&oOOOOO  $$$$$$$$$$$$$$$$$$$$  oo&&&&=&&&&&=&&&&   ",
"   oOOOOOOO&&=oOOOOO  $$$$$$$$$$$$$$$$$$$$  &&=&&&&==&&&&===&   ",
"   oOOOOOoO&&&o&&&&&  $$$$$$$$$$$$$$$$$$$$  &&&==&O&&&OOO&&&=   ",
"   o&&&&&o&OOO&=&&&&  $$$$$$$$$$$$$$$$$$$$  =&O&&&OOOO&OOOOO&   ",
"   OOOO&OOO&oOOOOOOO  $$$$$$$$$$$$$$$$$$$$  &=OOOOOOOOoOOOOOO   ",
"   OOOOOO&&=oOOOOOoO  $$$$$$$$$$$$$$$$$$$$  O&OOOO=&&OoOOOOOo   ",
"   OOOOoO&&&o&&&&&o&  $$$$$$$$$$$$$$$$$$$$  OO=&&OOOooo&&&&&o   ",
"   &&&&o&OOO&=&&&&&&  $$$$$$........$$$$$$  OoOOoo=OOOO&OOOOO   ",
"   &&&&&&&OO&&==&==o  $$$$$$........$$$$$$  &oO&&&&OOO&oOOOOO   ",
"   ==&==ooOOOOooOOOO    $$$$$$$$$$$$$$$$    OO&OOOOO&&=oOOOOO   ",
"   &&&&&ooOOOOOOOOOO    $$$$$$$$$$$$$$$$    OOOO&&oO&&&o&&&&&   ",
"   OOOooOOOOOOOOOO&=&&OO                oOOOOOoO&&o&OOO&=&&&&   ",
"   OOOOoOOOO&=OOOOOOOooo                o&&&&&o&OOOO&oOOOOOOO   ",
"   &&OOOOOOOOO&&&&OO&&  oooooooooooooooo  &&&&&&&O&&=oOOOOOoO   ",
"   Ooooo&&&&OO=&&&&&=&  oooooooooooooooo  OOOO&&=&&&&o&&&&&o&   ",
"   &&&&&=&&&&&&==&&&  oo  oooooo$$$$oo  oo  oO&&&=OOO&=&&&&&&   ",
"   =&&&&&==&&&O&&&OO  oo  oooooo$$$$oo  oo  o&OOO&&OO&&==&==o   ",
"   &===&O&&&OOOOOO&O  oo  oooooo$$$$oo  oo  &&&OOOoOOOO&&&&&o   ",
"   O&&&=OOOO&OOOOOoO  $$  oooooooo$$oo  oo  =ooOOOoOOOOOOOooO   ",
"   OOOO&OOOOoO=&&OoO  $$  oooooooo$$oo  oo  &ooOOOOOOOOOOOOoO   ",
"   OOOOO=&&OoOOOooo&  $$  $$$$oooooooo  $$  oOOOOOOOO&=&&OOOO   ",
"   OOOOoOOooo&=OOOO&  $$  $$$$oooooooo  $$  oOOOOOOOOOOOoooo&   ",
"   OO&&&=OOOO&&OOO&oOO                    OOOOOOOO&&&OO&&&&&=   ",
"   OOOOO&OOO&oOO&&=oOO                    ooo&&&&&&&&&&=&&&&&   ",
"   OOOOOOO&&=ooO&&&o&&&&  XXXXXXXXXX$$  &&&&&=&&&&==&&&&===&O   ",
"   OOOOOoO&&&oo&OOO&=&&&  XXXXXXXXXX$$  =&&&&&==&=&&&OOO&&&=O   ",
"   &&&&&o&OOO&OO&oOOOOOO  XXXXXXXXXX$$  &===&O&&&&OOO&OOOOO&O   ",
"   &&&=OOOO&OO&&=oOOOOOo  $$XX    XXXX  O&&&=OOOOoOOOoOOOOOO=   ",
"   OOO&OOO&oOO&&&o&&&&&o  $$XX    XXXX  OOOO&OOOOO&&OoOOOOOoO   ",
"   OOOOO&&=oOOOOO&=&&&&&      %%%%      OOOOO=&&OOOooo&&&&&oO   ",
"   OOOoO&&&o&&&OO&&==&==      %%%%      OOOOoOOoooOOOO&OOOOO&   ",
"   &&&o&OOO&=&oOOOO&&&&&ooOOO &&&= Oooo&&&&&oO&&&&OOO&oOOOOOO   ",
"   &&&&&&OO&&=oOOOOOOOooOOOOO &&&= OOOO&OOOOO&OOO&O&&=oOOOOOo   ",
"   =&==ooOOOO&OOOOOOOOOoOOOOO ooo& OOO&oOOOOOOO&&=O&&&o&&&&&o   ",
"   &&&&ooOOOOOOOO&=&&OOOOOOOO %%%% O&&=oOOOOOoO&&&&OOO&=&&&&&   ",
"   OOooOOOOOOOOOOOOOoooo&&&&& %%%% O&&&o&&&&&o&OOOOO&OOOOO&OO   ",
"   OOOoOOOO&=&&&&OO&&&&&=&&&& %%%% &OOO&=&&&&&&&OOO&oOOOOOOO&   ",
"   &OOOOOOOOOO&&&&&=&&&&&==&= %%%% OO&OOOOO&OOO&&&&=oOOOOOoO&   ",
"   oooo&&&&OO&==&&&&===&O&&&& %%%% O&oOOOOOOO&&=&&&&o&&&&&o&O   ",
"   &&&&=&&&&&=&&&OOO&&&=OOOOo %%%% &=oOOOOOoO&&&==OO&=&&&&&&&   ",
"   &&&&&==&&&&OOO&OOOOO&OOOOO %%%% &&o&&&&&o&OOO&&OO&&==&==oo   ",
"   ===&O&&&OOOOOOoOOOOOO=&&OO %%%% OO&=&&&&&&&OOOOOOOO&&&&&oo   ",
"   &&&=OOOO&OO&&OoOOOOOoOOooo %%%% OO&&==&==ooOOOOOOOOOOOooOO   ",
"   OOO&OOOOoOOOooo&&&&&oO&&&& %%%% OOOO&&&&&ooOOOOOOOOOOOOoOO   "
};
